<?xml version="1.0" encoding="UTF-8" standalone="no"?>
<svg
   xmlns:dc="http://purl.org/dc/elements/1.1/"
   xmlns:cc="http://creativecommons.org/ns#"
   xmlns:rdf="http://www.w3.org/1999/02/22-rdf-syntax-ns#"
   xmlns:svg="http://www.w3.org/2000/svg"
   xmlns="http://www.w3.org/2000/svg"
   xmlns:sodipodi="http://sodipodi.sourceforge.net/DTD/sodipodi-0.dtd"
   xmlns:inkscape="http://www.inkscape.org/namespaces/inkscape"
   viewBox="0 0 56.008221 56.314415"
   id="svg18605"
   height="56.314415"
   width="56.008221"
   version="1.1"
   inkscape:version="0.91+devel+osxmenu r12922"
   sodipodi:docname="Offline logo.svg">
  <sodipodi:namedview
     pagecolor="#ffffff"
     bordercolor="#666666"
     borderopacity="1"
     objecttolerance="10"
     gridtolerance="10"
     guidetolerance="10"
     inkscape:pageopacity="0"
     inkscape:pageshadow="2"
     inkscape:window-width="697"
     inkscape:window-height="480"
     id="namedview4151"
     showgrid="false"
     inkscape:zoom="4.1907565"
     inkscape:cx="28.00411"
     inkscape:cy="28.157207"
     inkscape:window-x="0"
     inkscape:window-y="23"
     inkscape:window-maximized="0"
     inkscape:current-layer="svg18605" />
  <defs
     id="defs18607" />
  <metadata
     id="metadata18610">
    <rdf:RDF>
      <cc:Work
         rdf:about="">
        <dc:format>image/svg+xml</dc:format>
        <dc:type
           rdf:resource="http://purl.org/dc/dcmitype/StillImage" />
        <dc:title />
      </cc:Work>
    </rdf:RDF>
  </metadata>
  <ellipse
     ry="28.157207"
     rx="28.00411"
     cy="28.157207"
     cx="28.00411"
     id="path3388-6"
     style="opacity:1;fill:#ffffff;fill-opacity:1" />
  <g
     style="fill:#000000"
     id="g6"
     transform="matrix(0.60029103,0,0,0.65239866,-2.0317094,-3.1816294)">
    <path
       style="fill:#000000"
       id="path8"
       d="M 84.5,15.1 73.7,25.9 C 50.8,16.7 23.6,21.4 5.1,39.9 l 6.4,6.4 C 26.4,31.5 47.8,27 66.6,33 l -7.4,7.4 c -14.4,-3 -30,1.1 -41.2,12.4 l 6.4,6.4 c 7.3,-7.3 17,-10.9 26.7,-10.6 l -11,11 c -3.4,1.3 -6.5,3.3 -9.3,6.1 l 1.6,1.6 -11.6,11.4 3.5,3.5 L 88,18.6 84.5,15.1 Z" />
    <path
       style="fill:#000000"
       id="path10"
       d="m 43.6,78.5 6.4,6.4 6.4,-6.4 c -3.5,-3.6 -9.3,-3.6 -12.8,0 z" />
    <path
       style="fill:#000000"
       id="path12"
       d="m 46.6,67.1 c 5.7,-1.1 11.9,0.6 16.3,5 l 6.4,-6.4 C 65.4,61.8 60.5,59.3 55.5,58.3 l -8.9,8.8 z" />
    <path
       style="fill:#000000"
       id="path14"
       d="m 62.8,50.9 c 4.7,1.8 9.1,4.5 12.9,8.3 l 6.4,-6.4 C 78.4,49.1 74.2,46.1 69.7,44 l -6.9,6.9 z" />
    <path
       style="fill:#000000"
       id="path16"
       d="m 83.1,30.6 -6.6,6.6 c 4.3,2.4 8.4,5.4 12.1,9.1 L 95,39.9 C 91.3,36.3 87.3,33.2 83.1,30.6 Z" />
  </g>
</svg>
